<svg fill="none" height="29" viewBox="0 0 26 29" width="26" xmlns="http://www.w3.org/2000/svg"><path clip-rule="evenodd" d="m25.4351 8.14783v17.62497c0 .9283 0 1.5-.5 2-.5695.5695-1.3546.5695-2.2829.5695l-2.4671-.0695v-1.75h2.4671c.4641 0 .5461.0126.7829-.25.25-.2773.25-.4926.25-.9567v-17.04327h-4.25c-.6962 0-1.0078-.00772-1.5-.5-.4923-.49229-.375-.91971-.375-1.6159v-4.1341l-10.1625.01425c-.46413 0-.72679 0-.96254.23575-.25.25-.25.80015-.25 1.26428v15.98569h-1.75l-.03748-15.98569c0-.92826-.15636-1.84366.50002-2.50003.65637-.65638 1.57173-.76422 2.49998-.76422l10.16252-.000033zm-21.70004 12.86247h-2.800001v6.9983h1.384251v-2.3485h1.40525c.50225 0 .92925-.0998 1.281-.3028.35525-.2047.6265-.4812.81025-.8295.19073-.3654.28755-.7726.28175-1.1847 0-.4375-.09275-.833-.2765-1.1848-.18277-.3496-.4622-.6394-.805-.8347-.35-.21-.77525-.3133-1.281-.3133zm.95375 2.3328c.00631.2305-.04481.4591-.14875.665-.09325.1793-.23841.3262-.4165.4217-.20372.1008-.42906.1501-.65625.1435h-1.15325v-2.4605h1.155c.3815 0 .68075.105.896.3168.21525.2135.32375.518.32375.9135zm2.12975-2.3328v6.9983h2.555c.70174 0 1.28454-.14 1.74654-.4148.4675-.2797.8326-.7024 1.0412-1.2057.2275-.525.343-1.1585.343-1.897 0-.735-.1137-1.3615-.343-1.8813-.2062-.4975-.5678-.9149-1.0307-1.19-.462-.273-1.0483-.4095-1.75879-.4095zm1.38425 1.1288h.98525c.434 0 .7875.0875 1.06574.266.2888.1889.5067.4683.6195.7945.1383.3517.2065.791.2065 1.3177.0054.3491-.0346.6973-.119 1.036-.0623.2672-.1791.5186-.343.7385-.1523.1963-.354.3485-.5845.441-.27008.1011-.55694.1498-.84524.1435h-.98525zm6.55029 3.0852v2.7843h-1.3825v-6.9983h4.459v1.1428h-3.0765v1.9547h2.8105v1.1165z" fill="#2a2238" fill-rule="evenodd"/></svg>